<mxfile host="Electron" agent="Mozilla/5.0 (Windows NT 10.0; Win64; x64) AppleWebKit/537.36 (KHTML, like Gecko) draw.io/28.1.2 Chrome/138.0.7204.243 Electron/37.4.0 Safari/537.36" version="28.1.2">
  <diagram name="Page-1" id="awh5Gusvq3baeLLJdyb3">
    <mxGraphModel dx="2728" dy="611" grid="0" gridSize="1" guides="1" tooltips="1" connect="1" arrows="1" fold="1" page="1" pageScale="1" pageWidth="850" pageHeight="1100" math="0" shadow="0">
      <root>
        <mxCell id="0" />
        <mxCell id="1" parent="0" />
        <mxCell id="01DOMB8k6mUTNf9-CGNe-35" value="" style="group" parent="1" vertex="1" connectable="0">
          <mxGeometry x="-1013" y="21" width="1017" height="332" as="geometry" />
        </mxCell>
        <mxCell id="01DOMB8k6mUTNf9-CGNe-13" value="" style="rounded=0;whiteSpace=wrap;html=1;strokeWidth=3;fontSize=20;container=0;fontStyle=1" parent="01DOMB8k6mUTNf9-CGNe-35" vertex="1">
          <mxGeometry x="237" width="173" height="192" as="geometry" />
        </mxCell>
        <mxCell id="01DOMB8k6mUTNf9-CGNe-14" value="D" style="text;html=1;align=center;verticalAlign=middle;resizable=0;points=[];autosize=1;strokeColor=none;fillColor=none;strokeWidth=3;fontSize=20;container=0;fontStyle=1" parent="01DOMB8k6mUTNf9-CGNe-35" vertex="1">
          <mxGeometry x="242" y="16" width="40" height="40" as="geometry" />
        </mxCell>
        <mxCell id="01DOMB8k6mUTNf9-CGNe-15" value="CLK" style="text;html=1;align=center;verticalAlign=middle;resizable=0;points=[];autosize=1;strokeColor=none;fillColor=none;strokeWidth=3;fontSize=20;container=0;fontStyle=1" parent="01DOMB8k6mUTNf9-CGNe-35" vertex="1">
          <mxGeometry x="238" y="132" width="60" height="40" as="geometry" />
        </mxCell>
        <mxCell id="01DOMB8k6mUTNf9-CGNe-16" value="Q" style="text;html=1;align=center;verticalAlign=middle;resizable=0;points=[];autosize=1;strokeColor=none;fillColor=none;strokeWidth=3;fontSize=20;container=0;fontStyle=1" parent="01DOMB8k6mUTNf9-CGNe-35" vertex="1">
          <mxGeometry x="365" y="16" width="40" height="40" as="geometry" />
        </mxCell>
        <mxCell id="01DOMB8k6mUTNf9-CGNe-18" value="" style="ellipse;whiteSpace=wrap;html=1;aspect=fixed;strokeWidth=3;" parent="01DOMB8k6mUTNf9-CGNe-35" vertex="1">
          <mxGeometry x="225" y="146.5" width="11" height="11" as="geometry" />
        </mxCell>
        <mxCell id="01DOMB8k6mUTNf9-CGNe-19" value="" style="rounded=0;whiteSpace=wrap;html=1;strokeWidth=3;fontSize=20;container=0;fontStyle=1" parent="01DOMB8k6mUTNf9-CGNe-35" vertex="1">
          <mxGeometry x="637" width="173" height="192" as="geometry" />
        </mxCell>
        <mxCell id="01DOMB8k6mUTNf9-CGNe-20" value="D" style="text;html=1;align=center;verticalAlign=middle;resizable=0;points=[];autosize=1;strokeColor=none;fillColor=none;strokeWidth=3;fontSize=20;container=0;fontStyle=1" parent="01DOMB8k6mUTNf9-CGNe-35" vertex="1">
          <mxGeometry x="642" y="16" width="40" height="40" as="geometry" />
        </mxCell>
        <mxCell id="01DOMB8k6mUTNf9-CGNe-21" value="CLK" style="text;html=1;align=center;verticalAlign=middle;resizable=0;points=[];autosize=1;strokeColor=none;fillColor=none;strokeWidth=3;fontSize=20;container=0;fontStyle=1" parent="01DOMB8k6mUTNf9-CGNe-35" vertex="1">
          <mxGeometry x="651" y="132" width="60" height="40" as="geometry" />
        </mxCell>
        <mxCell id="01DOMB8k6mUTNf9-CGNe-22" value="Q" style="text;html=1;align=center;verticalAlign=middle;resizable=0;points=[];autosize=1;strokeColor=none;fillColor=none;strokeWidth=3;fontSize=20;container=0;fontStyle=1" parent="01DOMB8k6mUTNf9-CGNe-35" vertex="1">
          <mxGeometry x="765" y="16" width="40" height="40" as="geometry" />
        </mxCell>
        <mxCell id="01DOMB8k6mUTNf9-CGNe-23" value="" style="triangle;whiteSpace=wrap;html=1;strokeWidth=3;fillColor=#33001A;strokeColor=#33001A;fontColor=#ffffff;" parent="01DOMB8k6mUTNf9-CGNe-35" vertex="1">
          <mxGeometry x="637" y="141" width="19" height="22" as="geometry" />
        </mxCell>
        <mxCell id="01DOMB8k6mUTNf9-CGNe-33" style="edgeStyle=orthogonalEdgeStyle;rounded=0;orthogonalLoop=1;jettySize=auto;html=1;exitX=0;exitY=0.5;exitDx=0;exitDy=0;endArrow=none;endFill=0;strokeWidth=3;" parent="01DOMB8k6mUTNf9-CGNe-35" source="01DOMB8k6mUTNf9-CGNe-25" edge="1">
          <mxGeometry relative="1" as="geometry">
            <mxPoint x="67" y="316" as="targetPoint" />
            <Array as="points">
              <mxPoint x="559" y="152" />
              <mxPoint x="559" y="316" />
              <mxPoint x="79" y="316" />
            </Array>
          </mxGeometry>
        </mxCell>
        <mxCell id="01DOMB8k6mUTNf9-CGNe-25" value="" style="ellipse;whiteSpace=wrap;html=1;aspect=fixed;strokeWidth=3;" parent="01DOMB8k6mUTNf9-CGNe-35" vertex="1">
          <mxGeometry x="625" y="146.5" width="11" height="11" as="geometry" />
        </mxCell>
        <mxCell id="01DOMB8k6mUTNf9-CGNe-26" style="rounded=0;orthogonalLoop=1;jettySize=auto;html=1;exitX=1;exitY=0.5;exitDx=0;exitDy=0;endArrow=none;endFill=0;strokeWidth=3;entryX=0;entryY=0.5;entryDx=0;entryDy=0;" parent="01DOMB8k6mUTNf9-CGNe-35" source="01DOMB8k6mUTNf9-CGNe-27" target="01DOMB8k6mUTNf9-CGNe-18" edge="1">
          <mxGeometry relative="1" as="geometry">
            <mxPoint x="223" y="152" as="targetPoint" />
          </mxGeometry>
        </mxCell>
        <mxCell id="01DOMB8k6mUTNf9-CGNe-27" value="clk 1" style="rounded=0;whiteSpace=wrap;html=1;strokeColor=none;fontSize=20;" parent="01DOMB8k6mUTNf9-CGNe-35" vertex="1">
          <mxGeometry x="7" y="135" width="67" height="35" as="geometry" />
        </mxCell>
        <mxCell id="01DOMB8k6mUTNf9-CGNe-28" style="rounded=0;orthogonalLoop=1;jettySize=auto;html=1;exitX=1;exitY=0.5;exitDx=0;exitDy=0;endArrow=none;endFill=0;strokeWidth=3;entryX=0.005;entryY=0.17;entryDx=0;entryDy=0;entryPerimeter=0;" parent="01DOMB8k6mUTNf9-CGNe-35" source="01DOMB8k6mUTNf9-CGNe-29" target="01DOMB8k6mUTNf9-CGNe-13" edge="1">
          <mxGeometry relative="1" as="geometry">
            <mxPoint x="235" y="32.68965517241378" as="targetPoint" />
          </mxGeometry>
        </mxCell>
        <mxCell id="01DOMB8k6mUTNf9-CGNe-29" value="d" style="rounded=0;whiteSpace=wrap;html=1;strokeColor=none;fontSize=20;" parent="01DOMB8k6mUTNf9-CGNe-35" vertex="1">
          <mxGeometry x="5" y="15" width="67" height="35" as="geometry" />
        </mxCell>
        <mxCell id="01DOMB8k6mUTNf9-CGNe-30" style="rounded=0;orthogonalLoop=1;jettySize=auto;html=1;endArrow=none;endFill=0;strokeWidth=3;" parent="01DOMB8k6mUTNf9-CGNe-35" edge="1">
          <mxGeometry relative="1" as="geometry">
            <mxPoint x="410" y="36" as="sourcePoint" />
            <mxPoint x="637" y="36" as="targetPoint" />
          </mxGeometry>
        </mxCell>
        <mxCell id="01DOMB8k6mUTNf9-CGNe-31" value="" style="edgeStyle=orthogonalEdgeStyle;rounded=0;orthogonalLoop=1;jettySize=auto;html=1;strokeWidth=3;endArrow=none;endFill=0;" parent="01DOMB8k6mUTNf9-CGNe-35" source="01DOMB8k6mUTNf9-CGNe-32" edge="1">
          <mxGeometry relative="1" as="geometry">
            <mxPoint x="811" y="36" as="targetPoint" />
          </mxGeometry>
        </mxCell>
        <mxCell id="01DOMB8k6mUTNf9-CGNe-32" value="q" style="rounded=0;whiteSpace=wrap;html=1;strokeColor=none;fontSize=20;" parent="01DOMB8k6mUTNf9-CGNe-35" vertex="1">
          <mxGeometry x="950" y="18.5" width="67" height="35" as="geometry" />
        </mxCell>
        <mxCell id="01DOMB8k6mUTNf9-CGNe-34" value="clk 2" style="rounded=0;whiteSpace=wrap;html=1;strokeColor=none;fontSize=20;" parent="01DOMB8k6mUTNf9-CGNe-35" vertex="1">
          <mxGeometry y="297" width="67" height="35" as="geometry" />
        </mxCell>
        <mxCell id="01DOMB8k6mUTNf9-CGNe-36" value="" style="group" parent="1" vertex="1" connectable="0">
          <mxGeometry x="153" y="36" width="1017" height="332" as="geometry" />
        </mxCell>
        <mxCell id="01DOMB8k6mUTNf9-CGNe-37" value="" style="rounded=0;whiteSpace=wrap;html=1;strokeWidth=3;fontSize=20;container=0;fontStyle=1" parent="01DOMB8k6mUTNf9-CGNe-36" vertex="1">
          <mxGeometry x="237" width="173" height="192" as="geometry" />
        </mxCell>
        <mxCell id="01DOMB8k6mUTNf9-CGNe-38" value="D" style="text;html=1;align=center;verticalAlign=middle;resizable=0;points=[];autosize=1;strokeColor=none;fillColor=none;strokeWidth=3;fontSize=20;container=0;fontStyle=1" parent="01DOMB8k6mUTNf9-CGNe-36" vertex="1">
          <mxGeometry x="242" y="16" width="40" height="40" as="geometry" />
        </mxCell>
        <mxCell id="01DOMB8k6mUTNf9-CGNe-39" value="CLK" style="text;html=1;align=center;verticalAlign=middle;resizable=0;points=[];autosize=1;strokeColor=none;fillColor=none;strokeWidth=3;fontSize=20;container=0;fontStyle=1" parent="01DOMB8k6mUTNf9-CGNe-36" vertex="1">
          <mxGeometry x="238" y="132" width="60" height="40" as="geometry" />
        </mxCell>
        <mxCell id="01DOMB8k6mUTNf9-CGNe-40" value="Q" style="text;html=1;align=center;verticalAlign=middle;resizable=0;points=[];autosize=1;strokeColor=none;fillColor=none;strokeWidth=3;fontSize=20;container=0;fontStyle=1" parent="01DOMB8k6mUTNf9-CGNe-36" vertex="1">
          <mxGeometry x="365" y="16" width="40" height="40" as="geometry" />
        </mxCell>
        <mxCell id="01DOMB8k6mUTNf9-CGNe-42" value="" style="ellipse;whiteSpace=wrap;html=1;aspect=fixed;strokeWidth=3;" parent="01DOMB8k6mUTNf9-CGNe-36" vertex="1">
          <mxGeometry x="225" y="146.5" width="11" height="11" as="geometry" />
        </mxCell>
        <mxCell id="01DOMB8k6mUTNf9-CGNe-43" value="" style="rounded=0;whiteSpace=wrap;html=1;strokeWidth=3;fontSize=20;container=0;fontStyle=1" parent="01DOMB8k6mUTNf9-CGNe-36" vertex="1">
          <mxGeometry x="637" width="173" height="192" as="geometry" />
        </mxCell>
        <mxCell id="01DOMB8k6mUTNf9-CGNe-44" value="D" style="text;html=1;align=center;verticalAlign=middle;resizable=0;points=[];autosize=1;strokeColor=none;fillColor=none;strokeWidth=3;fontSize=20;container=0;fontStyle=1" parent="01DOMB8k6mUTNf9-CGNe-36" vertex="1">
          <mxGeometry x="642" y="16" width="40" height="40" as="geometry" />
        </mxCell>
        <mxCell id="01DOMB8k6mUTNf9-CGNe-45" value="CLK" style="text;html=1;align=center;verticalAlign=middle;resizable=0;points=[];autosize=1;strokeColor=none;fillColor=none;strokeWidth=3;fontSize=20;container=0;fontStyle=1" parent="01DOMB8k6mUTNf9-CGNe-36" vertex="1">
          <mxGeometry x="651" y="132" width="60" height="40" as="geometry" />
        </mxCell>
        <mxCell id="01DOMB8k6mUTNf9-CGNe-46" value="Q" style="text;html=1;align=center;verticalAlign=middle;resizable=0;points=[];autosize=1;strokeColor=none;fillColor=none;strokeWidth=3;fontSize=20;container=0;fontStyle=1" parent="01DOMB8k6mUTNf9-CGNe-36" vertex="1">
          <mxGeometry x="765" y="16" width="40" height="40" as="geometry" />
        </mxCell>
        <mxCell id="01DOMB8k6mUTNf9-CGNe-47" value="" style="triangle;whiteSpace=wrap;html=1;strokeWidth=3;fillColor=#33001A;strokeColor=#33001A;fontColor=#ffffff;" parent="01DOMB8k6mUTNf9-CGNe-36" vertex="1">
          <mxGeometry x="637" y="141" width="19" height="22" as="geometry" />
        </mxCell>
        <mxCell id="01DOMB8k6mUTNf9-CGNe-48" style="edgeStyle=orthogonalEdgeStyle;rounded=0;orthogonalLoop=1;jettySize=auto;html=1;exitX=0;exitY=0.5;exitDx=0;exitDy=0;endArrow=none;endFill=0;strokeWidth=3;" parent="01DOMB8k6mUTNf9-CGNe-36" source="01DOMB8k6mUTNf9-CGNe-49" edge="1">
          <mxGeometry relative="1" as="geometry">
            <mxPoint x="67" y="316" as="targetPoint" />
            <Array as="points">
              <mxPoint x="559" y="152" />
              <mxPoint x="559" y="316" />
              <mxPoint x="79" y="316" />
            </Array>
          </mxGeometry>
        </mxCell>
        <mxCell id="01DOMB8k6mUTNf9-CGNe-49" value="" style="ellipse;whiteSpace=wrap;html=1;aspect=fixed;strokeWidth=3;" parent="01DOMB8k6mUTNf9-CGNe-36" vertex="1">
          <mxGeometry x="625" y="146.5" width="11" height="11" as="geometry" />
        </mxCell>
        <mxCell id="01DOMB8k6mUTNf9-CGNe-50" style="rounded=0;orthogonalLoop=1;jettySize=auto;html=1;exitX=1;exitY=0.5;exitDx=0;exitDy=0;endArrow=none;endFill=0;strokeWidth=3;entryX=0;entryY=0.5;entryDx=0;entryDy=0;" parent="01DOMB8k6mUTNf9-CGNe-36" source="01DOMB8k6mUTNf9-CGNe-51" target="01DOMB8k6mUTNf9-CGNe-42" edge="1">
          <mxGeometry relative="1" as="geometry">
            <mxPoint x="223" y="152" as="targetPoint" />
          </mxGeometry>
        </mxCell>
        <mxCell id="01DOMB8k6mUTNf9-CGNe-51" value="clk 1" style="rounded=0;whiteSpace=wrap;html=1;strokeColor=none;fontSize=20;" parent="01DOMB8k6mUTNf9-CGNe-36" vertex="1">
          <mxGeometry x="7" y="135" width="67" height="35" as="geometry" />
        </mxCell>
        <mxCell id="01DOMB8k6mUTNf9-CGNe-52" style="rounded=0;orthogonalLoop=1;jettySize=auto;html=1;exitX=1;exitY=0.5;exitDx=0;exitDy=0;endArrow=none;endFill=0;strokeWidth=3;entryX=0.005;entryY=0.17;entryDx=0;entryDy=0;entryPerimeter=0;" parent="01DOMB8k6mUTNf9-CGNe-36" source="01DOMB8k6mUTNf9-CGNe-53" target="01DOMB8k6mUTNf9-CGNe-37" edge="1">
          <mxGeometry relative="1" as="geometry">
            <mxPoint x="235" y="32.68965517241378" as="targetPoint" />
          </mxGeometry>
        </mxCell>
        <mxCell id="01DOMB8k6mUTNf9-CGNe-53" value="d" style="rounded=0;whiteSpace=wrap;html=1;strokeColor=none;fontSize=20;" parent="01DOMB8k6mUTNf9-CGNe-36" vertex="1">
          <mxGeometry x="5" y="15" width="67" height="35" as="geometry" />
        </mxCell>
        <mxCell id="01DOMB8k6mUTNf9-CGNe-54" style="rounded=0;orthogonalLoop=1;jettySize=auto;html=1;endArrow=none;endFill=0;strokeWidth=3;" parent="01DOMB8k6mUTNf9-CGNe-36" edge="1">
          <mxGeometry relative="1" as="geometry">
            <mxPoint x="410" y="36" as="sourcePoint" />
            <mxPoint x="637" y="36" as="targetPoint" />
          </mxGeometry>
        </mxCell>
        <mxCell id="01DOMB8k6mUTNf9-CGNe-55" value="" style="edgeStyle=orthogonalEdgeStyle;rounded=0;orthogonalLoop=1;jettySize=auto;html=1;strokeWidth=3;endArrow=none;endFill=0;" parent="01DOMB8k6mUTNf9-CGNe-36" source="01DOMB8k6mUTNf9-CGNe-56" edge="1">
          <mxGeometry relative="1" as="geometry">
            <mxPoint x="811" y="36" as="targetPoint" />
          </mxGeometry>
        </mxCell>
        <mxCell id="01DOMB8k6mUTNf9-CGNe-56" value="q" style="rounded=0;whiteSpace=wrap;html=1;strokeColor=none;fontSize=20;" parent="01DOMB8k6mUTNf9-CGNe-36" vertex="1">
          <mxGeometry x="950" y="18.5" width="67" height="35" as="geometry" />
        </mxCell>
        <mxCell id="01DOMB8k6mUTNf9-CGNe-57" value="clk 2" style="rounded=0;whiteSpace=wrap;html=1;strokeColor=none;fontSize=20;" parent="01DOMB8k6mUTNf9-CGNe-36" vertex="1">
          <mxGeometry y="297" width="67" height="35" as="geometry" />
        </mxCell>
        <mxCell id="01DOMB8k6mUTNf9-CGNe-58" value="" style="group" parent="1" vertex="1" connectable="0">
          <mxGeometry x="1434" y="43" width="1017" height="332" as="geometry" />
        </mxCell>
        <mxCell id="01DOMB8k6mUTNf9-CGNe-59" value="" style="rounded=0;whiteSpace=wrap;html=1;strokeWidth=3;fontSize=20;container=0;fontStyle=1" parent="01DOMB8k6mUTNf9-CGNe-58" vertex="1">
          <mxGeometry x="237" width="173" height="192" as="geometry" />
        </mxCell>
        <mxCell id="01DOMB8k6mUTNf9-CGNe-60" value="D" style="text;html=1;align=center;verticalAlign=middle;resizable=0;points=[];autosize=1;strokeColor=none;fillColor=none;strokeWidth=3;fontSize=20;container=0;fontStyle=1" parent="01DOMB8k6mUTNf9-CGNe-58" vertex="1">
          <mxGeometry x="242" y="16" width="40" height="40" as="geometry" />
        </mxCell>
        <mxCell id="01DOMB8k6mUTNf9-CGNe-61" value="CLK" style="text;html=1;align=center;verticalAlign=middle;resizable=0;points=[];autosize=1;strokeColor=none;fillColor=none;strokeWidth=3;fontSize=20;container=0;fontStyle=1" parent="01DOMB8k6mUTNf9-CGNe-58" vertex="1">
          <mxGeometry x="238" y="132" width="60" height="40" as="geometry" />
        </mxCell>
        <mxCell id="01DOMB8k6mUTNf9-CGNe-62" value="Q" style="text;html=1;align=center;verticalAlign=middle;resizable=0;points=[];autosize=1;strokeColor=none;fillColor=none;strokeWidth=3;fontSize=20;container=0;fontStyle=1" parent="01DOMB8k6mUTNf9-CGNe-58" vertex="1">
          <mxGeometry x="365" y="16" width="40" height="40" as="geometry" />
        </mxCell>
        <mxCell id="01DOMB8k6mUTNf9-CGNe-64" value="" style="ellipse;whiteSpace=wrap;html=1;aspect=fixed;strokeWidth=3;" parent="01DOMB8k6mUTNf9-CGNe-58" vertex="1">
          <mxGeometry x="225" y="146.5" width="11" height="11" as="geometry" />
        </mxCell>
        <mxCell id="01DOMB8k6mUTNf9-CGNe-65" value="" style="rounded=0;whiteSpace=wrap;html=1;strokeWidth=3;fontSize=20;container=0;fontStyle=1" parent="01DOMB8k6mUTNf9-CGNe-58" vertex="1">
          <mxGeometry x="637" width="173" height="192" as="geometry" />
        </mxCell>
        <mxCell id="01DOMB8k6mUTNf9-CGNe-66" value="D" style="text;html=1;align=center;verticalAlign=middle;resizable=0;points=[];autosize=1;strokeColor=none;fillColor=none;strokeWidth=3;fontSize=20;container=0;fontStyle=1" parent="01DOMB8k6mUTNf9-CGNe-58" vertex="1">
          <mxGeometry x="642" y="16" width="40" height="40" as="geometry" />
        </mxCell>
        <mxCell id="01DOMB8k6mUTNf9-CGNe-67" value="CLK" style="text;html=1;align=center;verticalAlign=middle;resizable=0;points=[];autosize=1;strokeColor=none;fillColor=none;strokeWidth=3;fontSize=20;container=0;fontStyle=1" parent="01DOMB8k6mUTNf9-CGNe-58" vertex="1">
          <mxGeometry x="651" y="132" width="60" height="40" as="geometry" />
        </mxCell>
        <mxCell id="01DOMB8k6mUTNf9-CGNe-68" value="Q" style="text;html=1;align=center;verticalAlign=middle;resizable=0;points=[];autosize=1;strokeColor=none;fillColor=none;strokeWidth=3;fontSize=20;container=0;fontStyle=1" parent="01DOMB8k6mUTNf9-CGNe-58" vertex="1">
          <mxGeometry x="765" y="16" width="40" height="40" as="geometry" />
        </mxCell>
        <mxCell id="01DOMB8k6mUTNf9-CGNe-69" value="" style="triangle;whiteSpace=wrap;html=1;strokeWidth=3;fillColor=#33001A;strokeColor=#33001A;fontColor=#ffffff;" parent="01DOMB8k6mUTNf9-CGNe-58" vertex="1">
          <mxGeometry x="637" y="141" width="19" height="22" as="geometry" />
        </mxCell>
        <mxCell id="01DOMB8k6mUTNf9-CGNe-70" style="edgeStyle=orthogonalEdgeStyle;rounded=0;orthogonalLoop=1;jettySize=auto;html=1;exitX=0;exitY=0.5;exitDx=0;exitDy=0;endArrow=none;endFill=0;strokeWidth=3;" parent="01DOMB8k6mUTNf9-CGNe-58" source="01DOMB8k6mUTNf9-CGNe-71" edge="1">
          <mxGeometry relative="1" as="geometry">
            <mxPoint x="67" y="316" as="targetPoint" />
            <Array as="points">
              <mxPoint x="559" y="152" />
              <mxPoint x="559" y="316" />
              <mxPoint x="79" y="316" />
            </Array>
          </mxGeometry>
        </mxCell>
        <mxCell id="01DOMB8k6mUTNf9-CGNe-71" value="" style="ellipse;whiteSpace=wrap;html=1;aspect=fixed;strokeWidth=3;" parent="01DOMB8k6mUTNf9-CGNe-58" vertex="1">
          <mxGeometry x="625" y="146.5" width="11" height="11" as="geometry" />
        </mxCell>
        <mxCell id="01DOMB8k6mUTNf9-CGNe-72" style="rounded=0;orthogonalLoop=1;jettySize=auto;html=1;exitX=1;exitY=0.5;exitDx=0;exitDy=0;endArrow=none;endFill=0;strokeWidth=3;entryX=0;entryY=0.5;entryDx=0;entryDy=0;" parent="01DOMB8k6mUTNf9-CGNe-58" source="01DOMB8k6mUTNf9-CGNe-73" target="01DOMB8k6mUTNf9-CGNe-64" edge="1">
          <mxGeometry relative="1" as="geometry">
            <mxPoint x="223" y="152" as="targetPoint" />
          </mxGeometry>
        </mxCell>
        <mxCell id="01DOMB8k6mUTNf9-CGNe-73" value="clk 1" style="rounded=0;whiteSpace=wrap;html=1;strokeColor=none;fontSize=20;" parent="01DOMB8k6mUTNf9-CGNe-58" vertex="1">
          <mxGeometry x="7" y="135" width="67" height="35" as="geometry" />
        </mxCell>
        <mxCell id="01DOMB8k6mUTNf9-CGNe-74" style="rounded=0;orthogonalLoop=1;jettySize=auto;html=1;exitX=1;exitY=0.5;exitDx=0;exitDy=0;endArrow=none;endFill=0;strokeWidth=3;entryX=0.005;entryY=0.17;entryDx=0;entryDy=0;entryPerimeter=0;" parent="01DOMB8k6mUTNf9-CGNe-58" source="01DOMB8k6mUTNf9-CGNe-75" target="01DOMB8k6mUTNf9-CGNe-59" edge="1">
          <mxGeometry relative="1" as="geometry">
            <mxPoint x="235" y="32.68965517241378" as="targetPoint" />
          </mxGeometry>
        </mxCell>
        <mxCell id="01DOMB8k6mUTNf9-CGNe-75" value="d" style="rounded=0;whiteSpace=wrap;html=1;strokeColor=none;fontSize=20;" parent="01DOMB8k6mUTNf9-CGNe-58" vertex="1">
          <mxGeometry x="5" y="15" width="67" height="35" as="geometry" />
        </mxCell>
        <mxCell id="01DOMB8k6mUTNf9-CGNe-76" style="rounded=0;orthogonalLoop=1;jettySize=auto;html=1;endArrow=none;endFill=0;strokeWidth=3;" parent="01DOMB8k6mUTNf9-CGNe-58" edge="1">
          <mxGeometry relative="1" as="geometry">
            <mxPoint x="410" y="36" as="sourcePoint" />
            <mxPoint x="637" y="36" as="targetPoint" />
          </mxGeometry>
        </mxCell>
        <mxCell id="01DOMB8k6mUTNf9-CGNe-77" value="" style="edgeStyle=orthogonalEdgeStyle;rounded=0;orthogonalLoop=1;jettySize=auto;html=1;strokeWidth=3;endArrow=none;endFill=0;" parent="01DOMB8k6mUTNf9-CGNe-58" source="01DOMB8k6mUTNf9-CGNe-78" edge="1">
          <mxGeometry relative="1" as="geometry">
            <mxPoint x="811" y="36" as="targetPoint" />
          </mxGeometry>
        </mxCell>
        <mxCell id="01DOMB8k6mUTNf9-CGNe-78" value="q" style="rounded=0;whiteSpace=wrap;html=1;strokeColor=none;fontSize=20;" parent="01DOMB8k6mUTNf9-CGNe-58" vertex="1">
          <mxGeometry x="950" y="18.5" width="67" height="35" as="geometry" />
        </mxCell>
        <mxCell id="01DOMB8k6mUTNf9-CGNe-79" value="clk 2" style="rounded=0;whiteSpace=wrap;html=1;strokeColor=none;fontSize=20;" parent="01DOMB8k6mUTNf9-CGNe-58" vertex="1">
          <mxGeometry y="297" width="67" height="35" as="geometry" />
        </mxCell>
        <mxCell id="01DOMB8k6mUTNf9-CGNe-80" value="" style="group" parent="1" vertex="1" connectable="0">
          <mxGeometry x="2600" y="58" width="1017" height="332" as="geometry" />
        </mxCell>
        <mxCell id="01DOMB8k6mUTNf9-CGNe-81" value="" style="rounded=0;whiteSpace=wrap;html=1;strokeWidth=3;fontSize=20;container=0;fontStyle=1" parent="01DOMB8k6mUTNf9-CGNe-80" vertex="1">
          <mxGeometry x="237" width="173" height="192" as="geometry" />
        </mxCell>
        <mxCell id="01DOMB8k6mUTNf9-CGNe-82" value="D" style="text;html=1;align=center;verticalAlign=middle;resizable=0;points=[];autosize=1;strokeColor=none;fillColor=none;strokeWidth=3;fontSize=20;container=0;fontStyle=1" parent="01DOMB8k6mUTNf9-CGNe-80" vertex="1">
          <mxGeometry x="242" y="16" width="40" height="40" as="geometry" />
        </mxCell>
        <mxCell id="01DOMB8k6mUTNf9-CGNe-83" value="CLK" style="text;html=1;align=center;verticalAlign=middle;resizable=0;points=[];autosize=1;strokeColor=none;fillColor=none;strokeWidth=3;fontSize=20;container=0;fontStyle=1" parent="01DOMB8k6mUTNf9-CGNe-80" vertex="1">
          <mxGeometry x="238" y="132" width="60" height="40" as="geometry" />
        </mxCell>
        <mxCell id="01DOMB8k6mUTNf9-CGNe-84" value="Q" style="text;html=1;align=center;verticalAlign=middle;resizable=0;points=[];autosize=1;strokeColor=none;fillColor=none;strokeWidth=3;fontSize=20;container=0;fontStyle=1" parent="01DOMB8k6mUTNf9-CGNe-80" vertex="1">
          <mxGeometry x="365" y="16" width="40" height="40" as="geometry" />
        </mxCell>
        <mxCell id="01DOMB8k6mUTNf9-CGNe-86" value="" style="ellipse;whiteSpace=wrap;html=1;aspect=fixed;strokeWidth=3;" parent="01DOMB8k6mUTNf9-CGNe-80" vertex="1">
          <mxGeometry x="225" y="146.5" width="11" height="11" as="geometry" />
        </mxCell>
        <mxCell id="01DOMB8k6mUTNf9-CGNe-87" value="" style="rounded=0;whiteSpace=wrap;html=1;strokeWidth=3;fontSize=20;container=0;fontStyle=1" parent="01DOMB8k6mUTNf9-CGNe-80" vertex="1">
          <mxGeometry x="637" width="173" height="192" as="geometry" />
        </mxCell>
        <mxCell id="01DOMB8k6mUTNf9-CGNe-88" value="D" style="text;html=1;align=center;verticalAlign=middle;resizable=0;points=[];autosize=1;strokeColor=none;fillColor=none;strokeWidth=3;fontSize=20;container=0;fontStyle=1" parent="01DOMB8k6mUTNf9-CGNe-80" vertex="1">
          <mxGeometry x="642" y="16" width="40" height="40" as="geometry" />
        </mxCell>
        <mxCell id="01DOMB8k6mUTNf9-CGNe-89" value="CLK" style="text;html=1;align=center;verticalAlign=middle;resizable=0;points=[];autosize=1;strokeColor=none;fillColor=none;strokeWidth=3;fontSize=20;container=0;fontStyle=1" parent="01DOMB8k6mUTNf9-CGNe-80" vertex="1">
          <mxGeometry x="651" y="132" width="60" height="40" as="geometry" />
        </mxCell>
        <mxCell id="01DOMB8k6mUTNf9-CGNe-90" value="Q" style="text;html=1;align=center;verticalAlign=middle;resizable=0;points=[];autosize=1;strokeColor=none;fillColor=none;strokeWidth=3;fontSize=20;container=0;fontStyle=1" parent="01DOMB8k6mUTNf9-CGNe-80" vertex="1">
          <mxGeometry x="765" y="16" width="40" height="40" as="geometry" />
        </mxCell>
        <mxCell id="01DOMB8k6mUTNf9-CGNe-91" value="" style="triangle;whiteSpace=wrap;html=1;strokeWidth=3;fillColor=#33001A;strokeColor=#33001A;fontColor=#ffffff;" parent="01DOMB8k6mUTNf9-CGNe-80" vertex="1">
          <mxGeometry x="637" y="141" width="19" height="22" as="geometry" />
        </mxCell>
        <mxCell id="01DOMB8k6mUTNf9-CGNe-92" style="edgeStyle=orthogonalEdgeStyle;rounded=0;orthogonalLoop=1;jettySize=auto;html=1;exitX=0;exitY=0.5;exitDx=0;exitDy=0;endArrow=none;endFill=0;strokeWidth=3;" parent="01DOMB8k6mUTNf9-CGNe-80" source="01DOMB8k6mUTNf9-CGNe-93" edge="1">
          <mxGeometry relative="1" as="geometry">
            <mxPoint x="67" y="316" as="targetPoint" />
            <Array as="points">
              <mxPoint x="559" y="152" />
              <mxPoint x="559" y="316" />
              <mxPoint x="79" y="316" />
            </Array>
          </mxGeometry>
        </mxCell>
        <mxCell id="01DOMB8k6mUTNf9-CGNe-93" value="" style="ellipse;whiteSpace=wrap;html=1;aspect=fixed;strokeWidth=3;" parent="01DOMB8k6mUTNf9-CGNe-80" vertex="1">
          <mxGeometry x="625" y="146.5" width="11" height="11" as="geometry" />
        </mxCell>
        <mxCell id="01DOMB8k6mUTNf9-CGNe-94" style="rounded=0;orthogonalLoop=1;jettySize=auto;html=1;exitX=1;exitY=0.5;exitDx=0;exitDy=0;endArrow=none;endFill=0;strokeWidth=3;entryX=0;entryY=0.5;entryDx=0;entryDy=0;" parent="01DOMB8k6mUTNf9-CGNe-80" source="01DOMB8k6mUTNf9-CGNe-95" target="01DOMB8k6mUTNf9-CGNe-86" edge="1">
          <mxGeometry relative="1" as="geometry">
            <mxPoint x="223" y="152" as="targetPoint" />
          </mxGeometry>
        </mxCell>
        <mxCell id="01DOMB8k6mUTNf9-CGNe-95" value="clk 1" style="rounded=0;whiteSpace=wrap;html=1;strokeColor=none;fontSize=20;" parent="01DOMB8k6mUTNf9-CGNe-80" vertex="1">
          <mxGeometry x="7" y="135" width="67" height="35" as="geometry" />
        </mxCell>
        <mxCell id="01DOMB8k6mUTNf9-CGNe-96" style="rounded=0;orthogonalLoop=1;jettySize=auto;html=1;exitX=1;exitY=0.5;exitDx=0;exitDy=0;endArrow=none;endFill=0;strokeWidth=3;entryX=0.005;entryY=0.17;entryDx=0;entryDy=0;entryPerimeter=0;" parent="01DOMB8k6mUTNf9-CGNe-80" source="01DOMB8k6mUTNf9-CGNe-97" target="01DOMB8k6mUTNf9-CGNe-81" edge="1">
          <mxGeometry relative="1" as="geometry">
            <mxPoint x="235" y="32.68965517241378" as="targetPoint" />
          </mxGeometry>
        </mxCell>
        <mxCell id="01DOMB8k6mUTNf9-CGNe-97" value="d" style="rounded=0;whiteSpace=wrap;html=1;strokeColor=none;fontSize=20;" parent="01DOMB8k6mUTNf9-CGNe-80" vertex="1">
          <mxGeometry x="5" y="15" width="67" height="35" as="geometry" />
        </mxCell>
        <mxCell id="01DOMB8k6mUTNf9-CGNe-98" style="rounded=0;orthogonalLoop=1;jettySize=auto;html=1;endArrow=none;endFill=0;strokeWidth=3;" parent="01DOMB8k6mUTNf9-CGNe-80" edge="1">
          <mxGeometry relative="1" as="geometry">
            <mxPoint x="410" y="36" as="sourcePoint" />
            <mxPoint x="637" y="36" as="targetPoint" />
          </mxGeometry>
        </mxCell>
        <mxCell id="01DOMB8k6mUTNf9-CGNe-99" value="" style="edgeStyle=orthogonalEdgeStyle;rounded=0;orthogonalLoop=1;jettySize=auto;html=1;strokeWidth=3;endArrow=none;endFill=0;" parent="01DOMB8k6mUTNf9-CGNe-80" source="01DOMB8k6mUTNf9-CGNe-100" edge="1">
          <mxGeometry relative="1" as="geometry">
            <mxPoint x="811" y="36" as="targetPoint" />
          </mxGeometry>
        </mxCell>
        <mxCell id="01DOMB8k6mUTNf9-CGNe-100" value="q" style="rounded=0;whiteSpace=wrap;html=1;strokeColor=none;fontSize=20;" parent="01DOMB8k6mUTNf9-CGNe-80" vertex="1">
          <mxGeometry x="950" y="18.5" width="67" height="35" as="geometry" />
        </mxCell>
        <mxCell id="01DOMB8k6mUTNf9-CGNe-101" value="clk 2" style="rounded=0;whiteSpace=wrap;html=1;strokeColor=none;fontSize=20;" parent="01DOMB8k6mUTNf9-CGNe-80" vertex="1">
          <mxGeometry y="297" width="67" height="35" as="geometry" />
        </mxCell>
        <mxCell id="01DOMB8k6mUTNf9-CGNe-102" value="slow" style="text;html=1;align=center;verticalAlign=middle;resizable=0;points=[];autosize=1;strokeColor=none;fillColor=none;fontSize=20;" parent="1" vertex="1">
          <mxGeometry x="-1113" y="154" width="59" height="37" as="geometry" />
        </mxCell>
        <mxCell id="01DOMB8k6mUTNf9-CGNe-103" value="slow" style="text;html=1;align=center;verticalAlign=middle;resizable=0;points=[];autosize=1;strokeColor=none;fillColor=none;fontSize=20;" parent="1" vertex="1">
          <mxGeometry x="-1116" y="315" width="59" height="37" as="geometry" />
        </mxCell>
        <mxCell id="01DOMB8k6mUTNf9-CGNe-104" value="slow" style="text;html=1;align=center;verticalAlign=middle;resizable=0;points=[];autosize=1;strokeColor=none;fillColor=none;fontSize=20;" parent="1" vertex="1">
          <mxGeometry x="90" y="168" width="59" height="37" as="geometry" />
        </mxCell>
        <mxCell id="01DOMB8k6mUTNf9-CGNe-105" value="fast" style="text;html=1;align=center;verticalAlign=middle;resizable=0;points=[];autosize=1;strokeColor=none;fillColor=none;fontSize=20;" parent="1" vertex="1">
          <mxGeometry x="91" y="329" width="51" height="37" as="geometry" />
        </mxCell>
        <mxCell id="01DOMB8k6mUTNf9-CGNe-106" value="fast" style="text;html=1;align=center;verticalAlign=middle;resizable=0;points=[];autosize=1;strokeColor=none;fillColor=none;fontSize=20;" parent="1" vertex="1">
          <mxGeometry x="1378" y="178" width="51" height="37" as="geometry" />
        </mxCell>
        <mxCell id="01DOMB8k6mUTNf9-CGNe-107" value="slow" style="text;html=1;align=center;verticalAlign=middle;resizable=0;points=[];autosize=1;strokeColor=none;fillColor=none;fontSize=20;" parent="1" vertex="1">
          <mxGeometry x="1371" y="339" width="59" height="37" as="geometry" />
        </mxCell>
        <mxCell id="01DOMB8k6mUTNf9-CGNe-108" value="fast" style="text;html=1;align=center;verticalAlign=middle;resizable=0;points=[];autosize=1;strokeColor=none;fillColor=none;fontSize=20;" parent="1" vertex="1">
          <mxGeometry x="2537" y="191" width="51" height="37" as="geometry" />
        </mxCell>
        <mxCell id="01DOMB8k6mUTNf9-CGNe-109" value="fast" style="text;html=1;align=center;verticalAlign=middle;resizable=0;points=[];autosize=1;strokeColor=none;fillColor=none;fontSize=20;" parent="1" vertex="1">
          <mxGeometry x="2534" y="352" width="51" height="37" as="geometry" />
        </mxCell>
      </root>
    </mxGraphModel>
  </diagram>
</mxfile>
